<mxfile host="app.diagrams.net" modified="2024-02-06T11:39:27.147Z" agent="Mozilla/5.0 (Macintosh; Intel Mac OS X 10_15_7) AppleWebKit/537.36 (KHTML, like Gecko) Chrome/119.0.0.0 Safari/537.36" etag="GalaHSDJc5jMjUb_MelA" version="23.1.1" type="device">
  <diagram name="Page-1" id="Z0GWRQavZL4MAr-hggOd">
    <mxGraphModel dx="1306" dy="835" grid="1" gridSize="10" guides="1" tooltips="1" connect="1" arrows="1" fold="1" page="1" pageScale="1" pageWidth="827" pageHeight="1169" math="0" shadow="0">
      <root>
        <mxCell id="0" />
        <mxCell id="1" parent="0" />
        <mxCell id="ORfN3x-elFtBwqzk7Ljr-1" value="Scelta" style="html=1;whiteSpace=wrap;aspect=fixed;shape=isoRectangle;fillColor=#e1d5e7;strokeColor=#9673a6;" vertex="1" parent="1">
          <mxGeometry x="110" y="70" width="83.33" height="50" as="geometry" />
        </mxCell>
        <mxCell id="ORfN3x-elFtBwqzk7Ljr-2" value="Risposta&amp;nbsp;del sistema" style="rounded=1;whiteSpace=wrap;html=1;fillColor=#ffe6cc;strokeColor=#d79b00;" vertex="1" parent="1">
          <mxGeometry x="220" y="70" width="100" height="50" as="geometry" />
        </mxCell>
        <mxCell id="ORfN3x-elFtBwqzk7Ljr-3" value="Azionie dell&#39;Utente&lt;span style=&quot;white-space: pre;&quot;&gt;&#x9;&lt;/span&gt;" style="rounded=1;whiteSpace=wrap;html=1;fillColor=#dae8fc;strokeColor=#6c8ebf;" vertex="1" parent="1">
          <mxGeometry x="350" y="70" width="100" height="50" as="geometry" />
        </mxCell>
        <mxCell id="ORfN3x-elFtBwqzk7Ljr-4" value="Inizio&lt;span style=&quot;white-space: pre;&quot;&gt;&#x9;&lt;/span&gt;" style="ellipse;whiteSpace=wrap;html=1;aspect=fixed;fillColor=#60a917;strokeColor=#2D7600;fontColor=#ffffff;" vertex="1" parent="1">
          <mxGeometry x="530" y="68.75" width="52.5" height="52.5" as="geometry" />
        </mxCell>
        <mxCell id="ORfN3x-elFtBwqzk7Ljr-5" value="Pausa" style="ellipse;whiteSpace=wrap;html=1;aspect=fixed;fillColor=#e3c800;strokeColor=#B09500;fontColor=#000000;" vertex="1" parent="1">
          <mxGeometry x="600" y="68.75" width="52.5" height="52.5" as="geometry" />
        </mxCell>
        <mxCell id="ORfN3x-elFtBwqzk7Ljr-6" value="Arrivo" style="ellipse;whiteSpace=wrap;html=1;aspect=fixed;fillColor=#e51400;strokeColor=#B20000;fontColor=#ffffff;" vertex="1" parent="1">
          <mxGeometry x="670" y="68.75" width="52.5" height="52.5" as="geometry" />
        </mxCell>
      </root>
    </mxGraphModel>
  </diagram>
</mxfile>
